<?xml version="1.0" encoding="UTF-8"?><svg id="Layer_1" xmlns="http://www.w3.org/2000/svg" viewBox="0 0 67 67"><defs><style>.cls-1{fill:#efece4;}</style></defs><path class="cls-1" d="m4.198589,33.9132027v16.2822193c7.066537,0,12.8154542,5.7487841,12.8154542,12.8149883h16.2812208c0-16.0434328-13.0525765-29.0972076-29.096675-29.0972076Z"/><path class="cls-1" d="m4.198589,16.804517v16.2822859c16.0440985,0,29.096675-13.0538414,29.096675-29.0972742h-16.2812208c0,7.0662041-5.7489173,12.8149883-12.8154542,12.8149883Z"/><path class="cls-1" d="m49.9860899,3.9895287h-16.2813539c0,16.0434328,13.0530425,29.0972742,29.096675,29.0972742v-16.2822859c-7.066537,0-12.8153211-5.7487841-12.8153211-12.8149883Z"/><path class="cls-1" d="m33.704736,63.0104102h16.2813539c0-7.0662041,5.7487841-12.8149883,12.8153211-12.8149883v-16.2808214c-16.0436325,0-29.096675,13.0523768-29.096675,29.0958096Z"/></svg>