<?xml version="1.0" encoding="UTF-8"?><svg id="Layer_1" xmlns="http://www.w3.org/2000/svg" viewBox="0 0 500 185"><defs><style>.cls-1{fill:#efece4;}</style></defs><polygon class="cls-1" points="432.1481305 62.8979009 417.3851342 184.0076008 485.2370036 184.0076008 500 62.8979009 432.1481305 62.8979009"/><path class="cls-1" d="m218.7720954.9925251v153.0595133c0,6.8238885-5.5486507,12.3726651-12.3721615,12.3726651h-.775542c-6.8237626,0-12.3724133-5.5487766-12.3724133-12.3726651V.9925251h-45.1700351v183.0148239h115.7466254V.9925251h-45.0564736Z"/><path class="cls-1" d="m343.0441434.9923992h-54.5100287v183.014698h54.5100287c32.970608,0,59.6996134-26.729635,59.6996134-59.7018796v-63.6099316c0-32.9735037-26.7290055-59.7028868-59.6996134-59.7028868m14.6454061,152.8651242c0,6.9285111-5.6395502,12.5670542-12.5683132,12.5670542s-12.5642844-5.638543-12.5642844-12.5670542V31.1429802c0-6.9275039,5.6355214-12.5670542,12.5642844-12.5670542s12.5683132,5.6395502,12.5683132,12.5670542v122.7145431Z"/><path class="cls-1" d="m493.9313837,24.1763215c0,12.8033679-10.3796731,23.1825374-23.1831669,23.1825374-12.803242,0-23.1831669-10.3791695-23.1831669-23.1825374,0-12.8034938,10.3799249-23.1825374,23.1831669-23.1825374,12.8034938,0,23.1831669,10.3790436,23.1831669,23.1825374"/><path class="cls-1" d="m78.0499953,94.0613449l-9.3629073,62.2485783c-.8661898,5.765324-5.9200547,10.1146543-11.7492099,10.1146543-6.5513157,0-11.8793901-5.3309701-11.8793901-11.8822858V.9923992H0v183.014698h112.7061481l11.1718339-89.9457523h-45.8279868Z"/></svg>