<?xml version="1.0" encoding="UTF-8"?><svg id="Layer_1" xmlns="http://www.w3.org/2000/svg" viewBox="0 0 242 67"><defs><style>.cls-1{fill:#fff;}</style></defs><g><path class="cls-1" d="m-.0002441,33.9132027v16.2822193c7.066537,0,12.8154542,5.7487841,12.8154542,12.8149883h16.2812208C29.0964309,46.9669775,16.0438543,33.9132027-.0002441,33.9132027Z"/><path class="cls-1" d="m-.0002441,16.804517v16.2822859c16.0440985,0,29.096675-13.0538414,29.096675-29.0972742H12.8152101C12.8152101,11.0557328,7.0662928,16.804517-.0002441,16.804517Z"/><path class="cls-1" d="m45.7872568,3.9895287h-16.2813539c0,16.0434328,13.0530425,29.0972742,29.096675,29.0972742v-16.2822859c-7.066537,0-12.8153211-5.7487841-12.8153211-12.8149883Z"/><path class="cls-1" d="m29.5059029,63.0104102h16.2813539c0-7.0662041,5.7487841-12.8149883,12.8153211-12.8149883v-16.2808214c-16.0436325,0-29.096675,13.0523768-29.096675,29.0958096Z"/></g><g><path class="cls-1" d="m95.5569741,26.9021185c-3.6389816,0-6.5989494,2.9599678-6.5989494,6.5984168,0,3.6389816,2.9599678,6.5989494,6.5989494,6.5989494,3.6384491,0,6.5984168-2.9599678,6.5984168-6.5989494,0-3.6384491-2.9599678-6.5984168-6.5984168-6.5984168Zm0,11.0649965c-2.4625569,0-4.4665797-2.0034902-4.4665797-4.4665797,0-2.4625569,2.0040228-4.4660471,4.4665797-4.4660471s4.4660471,2.0034902,4.4660471,4.4660471c0,2.4630894-2.0034902,4.4665797-4.4660471,4.4665797Z"/><path class="cls-1" d="m95.5569741,19.911205c-7.49365,0-13.5898629,6.0962129-13.5898629,13.5893303,0,7.49365,6.0962129,13.5903954,13.5898629,13.5903954s13.5898629-6.0967454,13.5898629-13.5903954c0-7.4931174-6.0962129-13.5893303-13.5898629-13.5893303Zm0,25.047356c-6.3177578,0-11.4574931-5.1402679-11.4574931-11.4580257,0-6.3172252,5.1397353-11.4569606,11.4574931-11.4569606s11.4574931,5.1397353,11.4574931,11.4569606c0,6.3177578-5.1397353,11.4580257-11.4574931,11.4580257Z"/><path class="cls-1" d="m95.5569741,12.919759c-11.3483184,0-20.5807763,9.232458-20.5807763,20.5807763s9.232458,20.5807763,20.5807763,20.5807763,20.5807763-9.232458,20.5807763-20.5807763-9.232458-20.5807763-20.5807763-20.5807763Zm0,39.029183c-10.1724262,0-18.4484066-8.2759804-18.4484066-18.4484066s8.2759804-18.4484066,18.4484066-18.4484066,18.4484066,8.2759804,18.4484066,18.4484066-8.2759804,18.4484066-18.4484066,18.4484066Z"/><path class="cls-1" d="m95.5569741,5.9283129c-15.2035193,0-27.5722224,12.3687031-27.5722224,27.5722224,0,15.2029867,12.3687031,27.5722224,27.5722224,27.5722224,15.2029867,0,27.5722224-12.3692356,27.5722224-27.5722224,0-15.2035193-12.3692356-27.5722224-27.5722224-27.5722224Zm0,53.012075c-14.0276271,0-25.4398526-11.4127581-25.4398526-25.4398526,0-14.0276271,11.4122256-25.4398526,25.4398526-25.4398526,14.0270945,0,25.4393201,11.4122256,25.4393201,25.4398526,0,14.0270945-11.4122256,25.4398526-25.4393201,25.4398526Z"/></g><g><path class="cls-1" d="m180.4427576,5.9726486h-15.2259534c0,6.2931269-5.1192984,11.411693-11.4123587,11.411693v15.2258868c14.6883342,0,26.6383121-11.9488462,26.6383121-26.6375798Z"/><path class="cls-1" d="m140.7197823,5.9726486h-15.2264859c0,14.6873356,11.9499113,26.6375798,26.6384452,26.6375798v-15.2258868c-6.2931935,0-11.4119593-5.1200306-11.4119593-11.411693Z"/><path class="cls-1" d="m125.4932964,61.0287549h15.2264859c0-6.2931269,5.1187658-11.4131575,11.4119593-11.4131575v-15.2258202c-14.6885339,0-26.6384452,11.9502442-26.6384452,26.6389778Z"/><path class="cls-1" d="m153.8044456,34.3897772v15.2258202c6.2930603,0,11.4123587,5.1186327,11.4123587,11.4131575h15.2259534c0-14.6901981-11.9499779-26.6389778-26.6383121-26.6389778Z"/></g><polygon class="cls-1" points="241.9997559 32.4338179 217.6087799 32.4338179 239.5840643 21.8507881 238.6595403 19.929312 216.6837234 30.5126082 231.8917694 11.443503 230.2237919 10.1131684 215.0169441 29.1812085 220.4438624 5.4032089 218.3647486 4.9281655 212.9368984 28.710359 207.5090481 4.9281655 205.4299344 5.4032089 210.8564532 29.1795442 195.6500049 10.1115708 193.9820273 11.4419053 209.1915379 30.5133404 187.2142565 19.929312 186.2897325 21.8507881 208.2650169 32.4338179 183.8740409 32.4338179 183.8740409 34.5661876 208.2658157 34.5661876 186.2897325 45.1492175 187.2142565 47.0706935 209.1911385 36.4873308 193.9820273 55.5586328 195.6500049 56.8879022 210.8564532 37.8207276 205.4299344 61.5967966 207.5090481 62.07184 212.9368984 38.2901126 218.3647486 62.07184 220.4438624 61.5967966 215.016811 37.8185974 230.2237919 56.8879022 231.8917694 55.5586328 216.6834571 36.4877302 238.6595403 47.0706935 239.5840643 45.1492175 217.607981 34.5661876 241.9997559 34.5661876 241.9997559 32.4338179"/></svg>