<?xml version="1.0" encoding="UTF-8"?><svg id="Layer_1" xmlns="http://www.w3.org/2000/svg" viewBox="0 0 242 67"><defs><style>.cls-1{fill:#034732;}.cls-2{fill:#efece4;}</style></defs><rect class="cls-2" width="242" height="67"/><g><g><path class="cls-1" d="m10.0600586,33.8788452v14.9284668c6.4790039,0,11.749939,5.270813,11.749939,11.7495117h14.9275513c0-14.7095337-11.9673462-26.6779785-26.6774902-26.6779785Z"/><path class="cls-1" d="m10.0600586,18.192627v14.9285278c14.710144,0,26.6774902-11.9685059,26.6774902-26.6780396h-14.9275513c0,6.4786987-5.2709351,11.7495117-11.749939,11.7495117Z"/><path class="cls-1" d="m52.0406494,6.4431152h-14.9276733c0,14.7095337,11.9677734,26.6780396,26.6774902,26.6780396v-14.9285278c-6.4790039,0-11.7498169-5.270813-11.7498169-11.7495117Z"/><path class="cls-1" d="m37.1129761,60.5568237h14.9276733c0-6.4786987,5.270813-11.7495117,11.7498169-11.7495117v-14.9271851c-14.7097168,0-26.6774902,11.9671631-26.6774902,26.6766968Z"/></g><g><path class="cls-1" d="m97.6723633,27.4506836c-3.3364258,0-6.050293,2.7138672-6.050293,6.0498047,0,3.3364258,2.7138672,6.050293,6.050293,6.050293,3.3359375,0,6.0498047-2.7138672,6.0498047-6.050293,0-3.3359375-2.7138672-6.0498047-6.0498047-6.0498047Zm0,10.1450195c-2.2578125,0-4.0952148-1.8369141-4.0952148-4.0952148,0-2.2578125,1.8374023-4.0947266,4.0952148-4.0947266s4.0947266,1.8369141,4.0947266,4.0947266c0,2.2583008-1.8369141,4.0952148-4.0947266,4.0952148Z"/><path class="cls-1" d="m97.6723633,21.0410156c-6.8706055,0-12.4599609,5.5893555-12.4599609,12.4594727,0,6.8706055,5.5893555,12.4604492,12.4599609,12.4604492s12.4599609-5.5898438,12.4599609-12.4604492c0-6.8701172-5.5893555-12.4594727-12.4599609-12.4594727Zm0,22.9648438c-5.7924805,0-10.5048828-4.7128906-10.5048828-10.5053711,0-5.7919922,4.7124023-10.5043945,10.5048828-10.5043945s10.5048828,4.7124023,10.5048828,10.5043945c0,5.7924805-4.7124023,10.5053711-10.5048828,10.5053711Z"/><path class="cls-1" d="m97.6723633,14.6308594c-10.4047852,0-18.8696289,8.4648438-18.8696289,18.8696289s8.4648438,18.8696289,18.8696289,18.8696289,18.8696289-8.4648438,18.8696289-18.8696289-8.4648438-18.8696289-18.8696289-18.8696289Zm0,35.7841797c-9.3266602,0-16.9145508-7.5878906-16.9145508-16.9145508s7.5878906-16.9145508,16.9145508-16.9145508,16.9145508,7.5878906,16.9145508,16.9145508-7.5878906,16.9145508-16.9145508,16.9145508Z"/><path class="cls-1" d="m97.6723633,8.2207031c-13.9394531,0-25.2797852,11.340332-25.2797852,25.2797852,0,13.9389648,11.340332,25.2797852,25.2797852,25.2797852,13.9389648,0,25.2797852-11.3408203,25.2797852-25.2797852,0-13.9394531-11.3408203-25.2797852-25.2797852-25.2797852Zm0,48.6044922c-12.8613281,0-23.324707-10.4638672-23.324707-23.324707,0-12.8613281,10.4633789-23.324707,23.324707-23.324707,12.8608398,0,23.3242188,10.4633789,23.3242188,23.324707,0,12.8608398-10.4633789,23.324707-23.3242188,23.324707Z"/></g><g><path class="cls-1" d="m175.5004883,8.2613525h-13.960022c0,5.7698975-4.6936646,10.4628906-10.463501,10.4628906v13.9599609c13.4671021,0,24.4235229-10.9553833,24.4235229-24.4228516Z"/><path class="cls-1" d="m139.0802002,8.2613525h-13.9605103c0,13.4661865,10.9563599,24.4228516,24.423645,24.4228516v-13.9599609c-5.7699585,0-10.4631348-4.6943359-10.4631348-10.4628906Z"/><path class="cls-1" d="m125.1196899,58.7399292h13.9605103c0-5.7698975,4.6931763-10.4642334,10.4631348-10.4642334v-13.9598999c-13.4672852,0-24.423645,10.956665-24.423645,24.4241333Z"/><path class="cls-1" d="m151.0769653,34.3157959v13.9598999c5.7698364,0,10.463501,4.6930542,10.463501,10.4642334h13.960022c0-13.468811-10.9564209-24.4241333-24.4235229-24.4241333Z"/></g><polygon class="cls-1" points="231.9394531 32.5224609 209.576416 32.5224609 229.7246094 22.8193359 228.8769531 21.0576172 208.7282715 30.7609863 222.671875 13.2773438 221.1425781 12.0576172 207.2000732 29.5402832 212.1757812 7.7392578 210.2695312 7.3037109 205.2929688 29.1085815 200.3164062 7.3037109 198.4101562 7.7392578 203.385498 29.5387573 189.4433594 12.0561523 187.9140625 13.2758789 201.8590088 30.7616577 181.7089844 21.0576172 180.8613281 22.8193359 201.0095215 32.5224609 178.6464844 32.5224609 178.6464844 34.4775391 201.0102539 34.4775391 180.8613281 44.1806641 181.7089844 45.9423828 201.8586426 36.2389526 187.9140625 53.7246094 189.4433594 54.9433594 203.385498 37.4614868 198.4101562 59.2607422 200.3164062 59.6962891 205.2929688 37.8918457 210.2695312 59.6962891 212.1757812 59.2607422 207.1999512 37.4595337 221.1425781 54.9433594 222.671875 53.7246094 208.7280273 36.2393188 228.8769531 45.9423828 229.7246094 44.1806641 209.5756836 34.4775391 231.9394531 34.4775391 231.9394531 32.5224609"/></g></svg>