<?xml version="1.0" encoding="utf-8"?>
<!-- Generator: Adobe Illustrator 27.2.0, SVG Export Plug-In . SVG Version: 6.00 Build 0)  -->
<svg version="1.1" id="Layer_1" xmlns="http://www.w3.org/2000/svg" xmlns:xlink="http://www.w3.org/1999/xlink" x="0px" y="0px"
	 viewBox="0 0 67 242" style="enable-background:new 0 0 67 242;" xml:space="preserve">
<style type="text/css">
	.st0{fill:#EFECE4;}
</style>
<g>
	<path class="st0" d="M33.6,1H17.4c0,7-5.7,12.7-12.7,12.7v16.1C20.6,29.9,33.6,16.9,33.6,1z"/>
	<path class="st0" d="M50.6,1H34.4c0,15.9,12.9,28.9,28.9,28.9V13.7C56.3,13.7,50.6,8,50.6,1z"/>
	<path class="st0" d="M63.3,46.4V30.3c-15.9,0-28.9,12.9-28.9,28.9h16.1C50.6,52.1,56.3,46.4,63.3,46.4z"/>
	<path class="st0" d="M4.7,30.3v16.1c7,0,12.7,5.7,12.7,12.7h16.1C33.6,43.2,20.6,30.3,4.7,30.3z"/>
</g>
<g>
	<path class="st0" d="M40.5,95.8c0-3.6-2.9-6.5-6.5-6.5c-3.6,0-6.5,2.9-6.5,6.5c0,3.6,2.9,6.5,6.5,6.5
		C37.6,102.3,40.5,99.4,40.5,95.8z M29.6,95.8c0-2.4,2-4.4,4.4-4.4c2.4,0,4.4,2,4.4,4.4c0,2.4-2,4.4-4.4,4.4
		C31.6,100.2,29.6,98.2,29.6,95.8z"/>
	<path class="st0" d="M47.5,95.8c0-7.4-6-13.5-13.5-13.5c-7.4,0-13.5,6-13.5,13.5c0,7.4,6,13.5,13.5,13.5
		C41.4,109.2,47.5,103.2,47.5,95.8z M22.6,95.8c0-6.3,5.1-11.4,11.4-11.4c6.3,0,11.4,5.1,11.4,11.4c0,6.3-5.1,11.4-11.4,11.4
		C27.7,107.1,22.6,102,22.6,95.8z"/>
	<path class="st0" d="M54.4,95.8c0-11.3-9.2-20.4-20.4-20.4s-20.4,9.2-20.4,20.4s9.2,20.4,20.4,20.4S54.4,107,54.4,95.8z M15.7,95.8
		c0-10.1,8.2-18.3,18.3-18.3s18.3,8.2,18.3,18.3s-8.2,18.3-18.3,18.3S15.7,105.9,15.7,95.8z"/>
	<path class="st0" d="M61.3,95.8c0-15.1-12.3-27.3-27.3-27.3c-15.1,0-27.3,12.3-27.3,27.3c0,15.1,12.3,27.3,27.3,27.3
		C49.1,123.1,61.3,110.8,61.3,95.8z M8.8,95.8c0-13.9,11.3-25.2,25.2-25.2c13.9,0,25.2,11.3,25.2,25.2c0,13.9-11.3,25.2-25.2,25.2
		C20.1,121,8.8,109.7,8.8,95.8z"/>
</g>
<g>
	<path class="st0" d="M61.3,180v-15.1c-6.2,0-11.3-5.1-11.3-11.3H34.9C34.9,168.1,46.7,180,61.3,180z"/>
	<path class="st0" d="M61.3,140.6v-15.1c-14.6,0-26.4,11.9-26.4,26.4H50C50,145.6,55.1,140.6,61.3,140.6z"/>
	<path class="st0" d="M6.7,125.5v15.1c6.2,0,11.3,5.1,11.3,11.3h15.1C33.1,137.3,21.3,125.5,6.7,125.5z"/>
	<path class="st0" d="M33.1,153.5H18c0,6.2-5.1,11.3-11.3,11.3V180C21.3,180,33.1,168.1,33.1,153.5z"/>
</g>
<polygon class="st0" points="35.1,241 35.1,216.8 45.6,238.6 47.5,237.7 37,215.9 55.9,231 57.2,229.3 38.3,214.2 61.9,219.6 
	62.3,217.6 38.8,212.2 62.3,206.8 61.9,204.7 38.3,210.1 57.2,195 55.9,193.4 37,208.5 47.5,186.7 45.6,185.8 35.1,207.5 
	35.1,183.4 32.9,183.4 32.9,207.5 22.4,185.8 20.5,186.7 31,208.5 12.1,193.4 10.8,195 29.7,210.1 6.1,204.7 5.7,206.8 29.2,212.2 
	5.7,217.6 6.1,219.6 29.7,214.2 10.8,229.3 12.1,231 31,215.9 20.5,237.7 22.4,238.6 32.9,216.8 32.9,241 "/>
</svg>
